<?xml version="1.0" encoding="UTF-8"?>
<svg width="720px" height="245px" viewBox="0 0 720 245" version="1.1" xmlns="http://www.w3.org/2000/svg" xmlns:xlink="http://www.w3.org/1999/xlink">
    <!-- Generator: Sketch 48.2 (47327) - http://www.bohemiancoding.com/sketch -->
    <title>design-header</title>
    <desc>Created with Sketch.</desc>
    <defs></defs>
    <g id="02.01.07-Design" stroke="none" stroke-width="1" fill="none" fill-rule="evenodd" transform="translate(-360.000000, -83.000000)">
        <g id="Znak" transform="translate(0.000000, 67.000000)" fill="#FF6C6C" fill-opacity="0" opacity="0">
            <rect id="Rectangle-28" x="0" y="0" width="1440" height="276"></rect>
        </g>
        <ellipse id="Oval-24-Copy" stroke="#D8262C" stroke-width="4.8" opacity="0.3" cx="976.988827" cy="95.0300752" rx="9.61117318" ry="9.63007519"></ellipse>
        <ellipse id="Oval-24-Copy" stroke="#D8262C" stroke-width="4.8" opacity="0.3" cx="989.988827" cy="315.030075" rx="9.61117318" ry="9.63007519"></ellipse>
        <g id="Group-2" transform="translate(419.000000, 100.000000)">
            <ellipse id="Oval-24-Copy" stroke="#D8262C" stroke-width="4.8" opacity="0.3" cx="203.011173" cy="184.030075" rx="9.61117318" ry="9.63007519"></ellipse>
            <ellipse id="Oval-24-Copy" stroke="#D8262C" stroke-width="4.8" opacity="0.3" cx="389.988827" cy="97.0300752" rx="9.61117318" ry="9.63007519"></ellipse>
            <ellipse id="Oval-24-Copy" stroke="#D8262C" stroke-width="4.8" opacity="0.3" cx="341.988827" cy="12.0300752" rx="9.61117318" ry="9.63007519"></ellipse>
            <ellipse id="Oval-24-Copy" stroke="#D8262C" stroke-width="4.8" opacity="0.3" cx="132.988827" cy="17.0300752" rx="9.61117318" ry="9.63007519"></ellipse>
            <ellipse id="Oval-24-Copy" stroke="#D8262C" stroke-width="4.8" opacity="0.3" cx="12.9888268" cy="57.0300752" rx="9.61117318" ry="9.63007519"></ellipse>
            <ellipse id="Oval-24-Copy" stroke="#D8262C" stroke-width="4.8" opacity="0.3" cx="47.9888268" cy="165.030075" rx="9.61117318" ry="9.63007519"></ellipse>
            <ellipse id="Oval-24-Copy" stroke="#D8262C" stroke-width="4.8" opacity="0.3" cx="635.988827" cy="114.030075" rx="9.61117318" ry="9.63007519"></ellipse>
            <g id="ic_settings_cell" transform="translate(484.526279, 48.088457) rotate(-30.000000) translate(-484.526279, -48.088457) translate(473.526279, 30.088457)"></g>
            <path d="M219.678383,172.443935 L258.155754,146.574392" id="Path-588" stroke="#D8262C" stroke-width="4.8" opacity="0.119999997" stroke-dasharray="8.4"></path>
            <path d="M63.6783827,154.443935 L102.155754,128.574392" id="Path-588" stroke="#D8262C" stroke-width="4.8" opacity="0.119999997" stroke-dasharray="8.4"></path>
            <path d="M241.939453,60.7050781 L261.855469,84.2890625" id="Path-588" stroke="#D8262C" stroke-width="4.8" opacity="0.119999997" stroke-dasharray="8.4"></path>
            <path d="M351.313209,116.802054 L377.394041,103.197946" id="Path-588" stroke="#D8262C" stroke-width="4.8" opacity="0.119999997" stroke-dasharray="8.4"></path>
            <path d="M156.003906,112.765625 L255.626927,117.818512" id="Path-588" stroke="#D8262C" stroke-width="4.8" opacity="0.119999997" stroke-dasharray="8.4"></path>
            <path d="M30.796875,66.1679687 L98.75,99.8085937" id="Path-588" stroke="#D8262C" stroke-width="4.8" opacity="0.119999997" stroke-dasharray="8.4"></path>
            <path d="M406.755676,111.045722 L457.430417,151.671854" id="Path-588" stroke="#D8262C" stroke-width="4.8" opacity="0.119999997" stroke-dasharray="8.4"></path>
            <path d="M154.336228,20.9366404 L196.992188,37.9179688" id="Path-588" stroke="#D8262C" stroke-width="4.8" opacity="0.119999997" stroke-dasharray="8.4"></path>
            <path d="M405.527204,86.5285276 L460.849331,58.3891137" id="Path-588" stroke="#D8262C" stroke-width="4.8" opacity="0.119999997" stroke-dasharray="8.4"></path>
            <path d="M310.042497,83.0170301 L334.334038,25.9006112" id="Path-588" stroke="#D8262C" stroke-width="4.8" opacity="0.119999997" stroke-dasharray="8.4"></path>
            <path d="M355.488185,175.613577 L316.310547,145.025391" id="Path-588" stroke="#D8262C" stroke-width="4.8" opacity="0.119999997" stroke-dasharray="8.4"></path>
            <g id="Group-6" opacity="0.7" transform="translate(357.000000, 4.000000)">
                <g id="Group-4" transform="translate(25.000000, 190.000000) rotate(-12.000000) translate(-25.000000, -190.000000) translate(4.000000, 172.000000)">
                    <rect id="Rectangle-661" stroke="#D8262C" stroke-width="4" x="2" y="2" width="38" height="26"></rect>
                    <rect id="Rectangle" fill="#D8262C" x="8.34022502" y="14.7040509" width="15" height="3"></rect>
                    <rect id="Rectangle" fill="#D8262C" x="10.340225" y="32.7040509" width="21" height="3"></rect>
                    <rect id="Rectangle" fill="#D8262C" x="8.34022502" y="19.7040509" width="10" height="3"></rect>
                    <path d="M11.340225,12.7040509 C12.9970793,12.7040509 14.340225,11.3609052 14.340225,9.70405092 C14.340225,8.04719667 12.9970793,6.70405092 11.340225,6.70405092 C9.68337077,6.70405092 8.34022502,8.04719667 8.34022502,9.70405092 C8.34022502,11.3609052 9.68337077,12.7040509 11.340225,12.7040509 Z" id="Oval-157" fill="#D8262C"></path>
                </g>
                <path d="M152,28 L189,0" id="Path-588" stroke="#D8262C" stroke-width="4.8" opacity="0.119999997" stroke-dasharray="8.4"></path>
                <path d="M138,148 L267,111" id="Path-588" stroke="#D8262C" stroke-width="4.8" opacity="0.119999997" stroke-dasharray="8.4"></path>
                <path d="M138,172 L196,201" id="Path-588" stroke="#D8262C" stroke-width="4.8" opacity="0.119999997" stroke-dasharray="8.4"></path>
            </g>
            <g id="Group-7" transform="translate(474.659323, 163.783155) rotate(-14.000000) translate(-474.659323, -163.783155) translate(459.159323, 150.783155)" opacity="0.699999988" stroke="#D8262C" stroke-width="4">
                <path d="M2.52710907,9.81527696 L15.352545,23.0804659 L28.177981,9.81527696 L23.7306548,2.69692792 L6.9744352,2.69692792 L2.52710907,9.81527696 Z" id="Polygon-8"></path>
            </g>
            <g id="ic_eraser" opacity="0.699999988" transform="translate(126.585786, 106.585786) scale(-1, 1) rotate(-135.000000) translate(-126.585786, -106.585786) translate(116.585786, 90.585786)" stroke="#D8262C" stroke-width="4">
                <rect id="Rectangle-9" x="2" y="13" width="16" height="17"></rect>
                <path d="M2,13 L18,13 L18,5.28000019 C18,3.46850611 16.5314939,2 14.7199998,2 L5.28000019,2 C3.46850611,2 2,3.46850611 2,5.28000019 L2,13 Z" id="Rectangle-9"></path>
            </g>
            <path d="M301.533713,108.729473 L301.533713,117.891618 L310.757717,117.891618 C310.764527,118.040165 310.767969,118.18959 310.767969,118.339821 C310.767969,123.651473 306.465007,127.957419 301.157034,127.957419 C295.849061,127.957419 291.546099,123.651473 291.546099,118.339821 C291.546099,113.028168 295.849061,108.722222 301.157034,108.722222 C301.283176,108.722222 301.40875,108.724654 301.533713,108.729473 Z M301,146 C269.835928,146 258,118.5 258,118.5 C258,118.5 269.835928,91 301,91 C332.164072,91 344,118.5 344,118.5 C344,118.5 332.164072,146 301,146 Z M301.081931,137.559075 C312.074952,137.559075 320.986557,128.641292 320.986557,117.640649 C320.986557,106.640006 312.074952,97.7222222 301.081931,97.7222222 C290.088909,97.7222222 281.177305,106.640006 281.177305,117.640649 C281.177305,128.641292 290.088909,137.559075 301.081931,137.559075 Z" id="Combined-Shape" fill="#D8262C"></path>
        </g>
        <g id="Group-26" opacity="0.699999988" transform="translate(633.000000, 151.500000) rotate(-315.000000) translate(-633.000000, -151.500000) translate(623.000000, 128.000000)" stroke="#D8262C" stroke-width="4">
            <path d="M2,21.0736988 L2,44.712044 L18,44.712044 L18,21.0736988 L10,12.9556471 L2,21.0736988 Z" id="Rectangle-10" transform="translate(10.000000, 28.409159) rotate(-180.000000) translate(-10.000000, -28.409159) "></path>
            <path d="M2,12.9535339 L18,12.9535339 L18,8.02872665 C18,5.09566955 15.6222874,2.71795697 12.6892303,2.71795697 L7.31076968,2.71795697 C4.37771258,2.71795697 2,5.09566955 2,8.02872665 L2,12.9535339 Z" id="Rectangle-11"></path>
        </g>
        <g id="Group-4" opacity="0.699999988" transform="translate(901.000000, 147.500000) rotate(-12.000000) translate(-901.000000, -147.500000) translate(888.000000, 131.000000)">
            <rect id="Rectangle-661" stroke="#D8262C" stroke-width="4" x="2" y="2" width="22" height="29"></rect>
            <path d="M12.3123242,26.0257454 C13.4168937,26.0257454 14.3123242,25.116539 14.3123242,23.9949761 C14.3123242,22.8734132 13.4168937,21.9642069 12.3123242,21.9642069 C11.2077547,21.9642069 10.3123242,22.8734132 10.3123242,23.9949761 C10.3123242,25.116539 11.2077547,26.0257454 12.3123242,26.0257454 Z" id="Oval-157" fill="#D8262C"></path>
        </g>
    </g>
</svg>